<?xml version="1.0" standalone="no"?>
<!DOCTYPE svg PUBLIC "-//W3C//DTD SVG 20010904//EN"
 "http://www.w3.org/TR/2001/REC-SVG-20010904/DTD/svg10.dtd">
<svg version="1.0" xmlns="http://www.w3.org/2000/svg"
 width="1316.000000pt" height="642.000000pt" viewBox="0 0 1316.000000 642.000000"
 preserveAspectRatio="xMidYMid meet">

<g transform="translate(0.000000,642.000000) scale(0.100000,-0.100000)"
fill="#000000" stroke="none">
<path d="M2530 6266 c-17 -9 -84 -16 -200 -20 -296 -12 -378 -29 -563 -121
-40 -19 -53 -22 -83 -13 -20 5 -57 7 -83 3 -42 -5 -49 -3 -79 25 -52 47 -59
44 -124 -55 -37 -55 -83 -90 -139 -105 -66 -18 -189 -171 -189 -235 0 -21 -9
-49 -20 -64 -27 -39 -113 -95 -192 -126 -51 -20 -76 -38 -104 -71 -20 -25 -54
-56 -75 -70 -21 -13 -47 -41 -58 -62 -10 -20 -45 -66 -76 -101 -32 -36 -72
-87 -90 -115 -18 -28 -42 -59 -53 -69 -11 -10 -25 -38 -32 -63 -12 -41 -11
-46 9 -68 22 -23 28 -70 12 -81 -6 -3 -9 -38 -8 -78 2 -126 -71 -307 -133
-329 -13 -4 -12 -10 6 -34 28 -40 34 -67 22 -113 -16 -61 -5 -85 54 -122 52
-33 56 -34 318 -61 512 -52 568 -43 1149 196 300 124 536 207 641 227 54 11
76 22 133 67 216 171 417 246 662 246 146 0 225 -16 332 -64 116 -53 484 -252
517 -279 17 -15 44 -32 59 -39 15 -7 123 -103 240 -214 347 -330 395 -381 422
-440 28 -62 133 -414 171 -575 l27 -113 54 -20 c79 -29 91 -26 147 38 28 31
110 106 184 166 102 83 155 134 219 215 75 94 163 245 163 280 0 7 16 42 37
78 42 75 54 119 60 220 6 94 -7 103 -94 68 -33 -14 -98 -31 -144 -38 -46 -7
-94 -19 -106 -25 -12 -7 -41 -12 -65 -12 -24 0 -61 -9 -82 -19 -45 -23 -85
-14 -111 25 -9 14 -25 34 -36 45 -15 15 -17 24 -9 39 13 25 -8 70 -43 92 -12
9 -49 41 -81 72 -31 31 -79 67 -105 81 -81 40 -106 68 -146 162 -42 98 -54
115 -107 149 -40 25 -51 51 -69 167 -13 79 -26 102 -94 165 -53 50 -57 56 -51
88 4 20 3 34 -3 34 -19 0 -148 200 -165 256 -5 16 -2 23 13 27 24 6 41 62 41
132 0 70 -55 179 -85 170 -51 -17 -83 -16 -121 4 -50 27 -69 26 -169 -5 -90
-28 -78 -28 -230 10 -33 8 -70 13 -83 9 -16 -4 -30 1 -45 15 -13 13 -43 23
-75 28 -35 4 -64 16 -83 32 -38 31 -81 40 -139 30 -74 -13 -94 -35 -98 -104
-5 -90 -48 -119 -110 -75 -33 23 -114 51 -148 51 -38 0 -61 16 -73 50 -13 40
-69 65 -175 79 -46 7 -93 20 -110 31 -17 11 -43 26 -58 32 -16 7 -28 17 -28
22 0 6 17 27 38 49 34 35 37 43 38 100 0 34 3 71 5 82 3 13 -1 19 -9 17 -8 -1
-28 7 -47 18 -38 23 -42 24 -75 6z m-420 -390 c41 -19 152 -70 245 -113 297
-139 606 -252 890 -323 72 -19 132 -35 133 -36 2 -1 1 -12 -3 -23 -6 -20 -14
-21 -143 -21 l-137 -1 37 -19 c41 -22 57 -40 35 -40 -12 0 -328 62 -385 75
-21 5 -22 4 -12 -16 7 -11 9 -23 6 -26 -3 -4 -59 -2 -123 4 -65 6 -120 8 -123
6 -3 -3 3 -10 13 -17 47 -29 52 -34 40 -46 -8 -9 -43 4 -144 54 -73 36 -144
66 -158 66 -14 0 -97 -40 -186 -90 -197 -109 -266 -141 -374 -169 -46 -13 -91
-25 -99 -29 -12 -4 -14 -1 -8 14 4 10 19 48 32 84 l25 64 -23 -20 c-103 -92
-217 -183 -222 -176 -3 5 21 48 54 95 33 47 60 88 60 92 0 3 -17 -6 -37 -20
-21 -14 -41 -25 -45 -25 -4 0 -8 26 -10 58 l-3 57 -69 -83 -69 -82 -22 20
c-29 27 -59 25 -114 -8 -25 -16 -53 -31 -61 -34 -8 -4 -33 -14 -55 -23 l-40
-17 40 41 c21 23 37 41 34 41 -3 0 -50 -15 -105 -34 -104 -36 -328 -90 -347
-83 -6 2 24 27 67 57 l79 53 -23 17 c-13 9 -20 22 -16 28 6 10 698 454 874
560 67 41 103 55 180 72 53 11 115 27 137 35 62 21 94 18 175 -19z"/>
<path d="M3093 4726 c-100 -19 -165 -42 -258 -90 -89 -45 -228 -146 -251 -181
-12 -19 -26 -23 -82 -27 -91 -7 -323 -86 -687 -236 -601 -247 -651 -254 -1307
-179 -27 3 -27 3 -8 -20 10 -13 21 -43 25 -66 10 -58 32 -91 75 -116 20 -11
93 -67 162 -125 68 -57 138 -111 156 -120 43 -22 110 -20 168 6 66 29 224 37
310 15 58 -15 63 -15 125 7 35 12 74 28 87 35 13 7 47 19 75 28 29 8 57 19 63
24 6 5 62 14 124 20 105 11 114 10 139 -8 14 -11 36 -43 47 -72 12 -29 28 -59
37 -68 16 -16 61 -19 126 -8 45 8 145 -17 174 -43 24 -22 35 -70 25 -112 -5
-19 -13 -64 -18 -100 -18 -118 -22 -135 -42 -157 l-20 -21 31 -59 c18 -33 73
-101 130 -160 89 -92 101 -109 121 -170 12 -37 31 -82 41 -100 31 -50 57 -154
46 -186 -7 -21 -3 -39 17 -82 48 -101 44 -195 -10 -230 -14 -9 -34 -36 -44
-59 -22 -48 -70 -276 -70 -330 0 -41 19 -90 49 -124 l21 -24 52 46 c29 25 60
46 70 46 12 0 34 -34 72 -107 66 -129 134 -217 201 -260 85 -54 113 -82 141
-139 15 -31 95 -225 178 -432 l151 -376 47 -12 c40 -10 57 -9 115 7 37 10 80
21 95 24 29 6 218 171 218 191 0 22 -173 645 -217 779 -78 241 -242 653 -324
818 -94 187 -121 276 -121 394 l0 84 42 45 c75 82 104 192 83 311 l-10 51 30
6 c86 17 359 -4 438 -33 29 -12 78 -39 107 -61 57 -44 82 -49 107 -23 32 32
-2 118 -75 188 -35 34 -39 71 -9 80 16 5 34 -6 83 -53 67 -65 152 -123 234
-161 48 -22 52 -27 58 -68 3 -24 4 -155 1 -291 -4 -214 -10 -286 -45 -542 -23
-162 -44 -344 -47 -405 -16 -248 43 -542 152 -760 53 -105 130 -217 166 -242
41 -29 105 -38 150 -24 41 14 97 72 97 101 0 30 -35 59 -80 66 -53 9 -88 51
-128 153 -52 131 -67 225 -67 421 0 206 11 264 91 510 104 322 150 582 155
873 2 105 3 108 23 103 12 -4 56 -12 98 -18 156 -24 305 23 423 134 74 69 86
94 22 45 -153 -117 -347 -121 -533 -12 -41 24 -46 30 -42 57 7 46 -25 178
-123 508 -50 165 -75 205 -211 331 -57 52 -180 169 -275 262 -107 104 -179
167 -192 167 -11 0 -42 19 -68 41 -62 54 -482 274 -570 300 -89 26 -246 33
-340 15z m793 -562 c81 -54 -12 -131 -106 -89 -22 10 -46 25 -55 35 -14 15
-13 18 3 33 28 26 85 47 111 41 12 -3 34 -12 47 -20z"/>
<path d="M11738 4706 c-53 -19 -83 -40 -111 -78 -82 -108 -43 -260 82 -323 25
-13 52 -16 102 -13 83 4 140 39 177 108 33 63 29 159 -11 218 -50 77 -161 117
-239 88z m112 -36 c20 -5 52 -27 72 -47 71 -74 71 -173 -1 -244 -88 -88 -227
-66 -280 43 -25 52 -27 95 -6 145 21 50 42 72 90 94 45 21 75 23 125 9z"/>
<path d="M11710 4505 l0 -115 25 0 c23 0 25 4 25 46 0 41 2 45 22 42 15 -2 31
-18 46 -45 18 -32 30 -43 48 -43 13 0 24 2 24 5 0 11 -32 70 -47 87 -13 14
-12 19 7 38 15 15 20 29 16 43 -3 12 -6 25 -6 29 0 12 -63 28 -111 28 l-49 0
0 -115z m105 45 c0 -20 -6 -26 -27 -28 -25 -3 -28 0 -28 28 0 28 3 31 28 28
21 -2 27 -8 27 -28z"/>
<path d="M8538 4530 c-93 -24 -160 -104 -174 -208 l-7 -52 -43 0 -44 0 0 -115
0 -115 45 0 45 0 0 -260 0 -260 155 0 155 0 0 260 0 260 85 0 85 0 0 115 0
115 -91 0 c-79 0 -90 2 -85 16 3 9 6 19 6 24 0 17 62 32 115 28 l55 -5 0 93
c0 78 -3 93 -17 99 -29 12 -244 15 -285 5z"/>
<path d="M9510 4435 l0 -95 160 0 160 0 0 95 0 95 -160 0 -160 0 0 -95z"/>
<path d="M12365 4311 c-102 -36 -107 -43 -145 -200 -125 -502 -192 -971 -194
-1346 0 -167 2 -187 27 -280 35 -126 80 -210 131 -247 118 -85 332 -75 503 26
71 42 143 107 143 129 0 27 -58 21 -143 -13 -193 -77 -305 -64 -356 43 -42 88
-54 195 -48 402 12 351 59 716 156 1195 32 162 57 298 54 302 -8 14 -77 8
-128 -11z"/>
<path d="M7689 4280 c-72 -9 -187 -39 -194 -50 -4 -6 41 -190 48 -196 1 -1 34
6 72 16 89 24 176 25 221 4 38 -18 48 -32 59 -83 7 -32 6 -34 -16 -27 -73 20
-175 27 -237 16 -146 -25 -215 -99 -215 -230 0 -141 95 -230 245 -230 62 0
110 16 167 55 l51 34 0 -35 0 -34 155 0 155 0 0 261 c0 159 -4 276 -11 298
-27 90 -117 168 -220 190 -72 16 -204 21 -280 11z m195 -446 c18 -7 21 -49 7
-87 -26 -69 -111 -91 -150 -41 -29 37 -26 70 8 105 24 23 38 29 74 29 25 0 52
-3 61 -6z"/>
<path d="M9392 4279 c-62 -12 -108 -44 -147 -102 l-35 -52 0 73 0 72 -155 0
-155 0 0 -375 0 -375 154 0 154 0 4 148 c3 128 6 152 25 189 30 56 71 82 148
95 l65 11 0 158 c0 87 -3 160 -7 162 -5 2 -27 0 -51 -4z"/>
<path d="M10200 4274 c-111 -30 -206 -109 -257 -212 -26 -52 -28 -67 -28 -167
0 -105 2 -114 33 -177 38 -79 111 -149 192 -187 49 -22 68 -25 170 -26 110 0
118 1 182 33 65 32 168 128 168 155 0 7 -49 40 -109 73 l-109 61 -32 -33 c-83
-88 -204 -27 -204 103 0 62 22 99 75 125 45 23 97 10 133 -32 l24 -30 110 62
c123 69 120 63 61 139 -83 106 -257 154 -409 113z"/>
<path d="M10959 4280 c-73 -9 -187 -39 -194 -51 -4 -6 40 -187 47 -194 2 -2
35 5 73 15 124 33 231 21 261 -28 6 -10 15 -33 19 -51 7 -32 6 -34 -16 -27
-73 20 -175 27 -237 16 -146 -25 -216 -100 -216 -230 0 -140 96 -230 246 -230
62 0 110 16 167 55 l51 34 0 -35 0 -34 155 0 155 0 0 256 c0 148 -4 273 -11
297 -23 93 -113 173 -220 196 -72 16 -204 21 -280 11z m200 -449 c22 -14 5
-94 -26 -125 -36 -36 -94 -36 -122 0 -29 37 -26 70 8 105 25 24 38 29 78 29
26 0 54 -4 62 -9z"/>
<path d="M9510 3895 l0 -375 155 0 155 0 0 375 0 375 -155 0 -155 0 0 -375z"/>
<path d="M6665 4240 c-84 -21 -142 -66 -173 -134 -23 -47 -76 -349 -112 -631
-12 -93 -27 -182 -32 -198 -12 -31 -14 -32 -168 -47 -162 -17 -265 -36 -295
-56 -28 -18 -48 -51 -71 -115 -12 -37 -12 -41 6 -59 13 -13 28 -18 43 -15 59
13 450 75 454 72 2 -3 5 -116 7 -253 4 -262 17 -383 57 -518 42 -142 124 -290
157 -284 16 3 17 34 14 358 -3 263 1 402 12 534 9 99 19 183 23 187 8 8 428
79 463 79 15 0 20 -7 20 -27 0 -16 11 -68 25 -117 38 -138 50 -308 35 -516
-17 -233 -12 -296 24 -327 34 -29 50 -29 106 0 56 28 69 54 81 170 18 170 27
214 55 277 76 169 232 299 415 345 139 35 181 85 110 132 -65 44 -238 28 -354
-32 -60 -31 -150 -97 -180 -131 -39 -45 -49 -34 -62 67 -8 66 -44 130 -87 158
-21 13 -38 32 -38 42 0 11 -9 21 -22 24 -62 14 -220 25 -369 25 -119 0 -170 4
-183 13 -17 12 -16 20 3 172 26 192 60 393 107 615 19 90 34 172 34 182 0 14
-8 18 -37 17 -21 -1 -51 -5 -68 -9z"/>
<path d="M11330 3223 c-82 -9 -212 -48 -299 -90 -77 -37 -108 -59 -175 -126
-126 -126 -172 -242 -164 -412 6 -142 59 -240 172 -319 70 -49 145 -80 234
-97 83 -16 337 -6 417 16 99 27 256 109 319 166 59 53 93 104 77 113 -5 3 -49
-15 -97 -39 -269 -138 -582 -158 -754 -49 -77 48 -130 128 -130 193 0 33 3 35
96 46 184 20 458 131 577 233 80 69 120 134 125 204 4 56 3 59 -35 97 -52 52
-119 71 -237 69 -50 0 -107 -3 -126 -5z m144 -107 c40 -17 51 -44 37 -89 -11
-33 -71 -97 -126 -134 -65 -44 -445 -230 -451 -221 -20 31 37 184 97 260 37
46 138 120 204 149 44 19 149 46 188 48 10 1 33 -5 51 -13z"/>
<path d="M8690 3213 c-70 -12 -181 -48 -233 -76 -182 -96 -368 -366 -384 -555
-14 -166 74 -340 204 -403 94 -45 254 -31 388 35 39 19 115 72 170 117 139
114 180 139 230 139 56 0 108 -30 196 -116 42 -41 83 -74 92 -74 100 0 -36
269 -174 345 -44 24 -66 29 -119 29 -98 0 -167 -30 -306 -135 -65 -49 -146
-103 -178 -119 -106 -54 -180 -36 -222 53 -47 103 -26 224 62 359 114 172 268
271 373 240 68 -21 96 -80 111 -229 4 -51 15 -105 22 -120 12 -24 19 -28 55
-27 78 1 116 43 133 146 14 90 -1 196 -39 263 -30 55 -98 108 -159 125 -36 10
-171 12 -222 3z"/>
<path d="M9452 3180 c-26 -11 -28 7 29 -220 78 -306 177 -562 264 -680 46 -63
112 -103 169 -103 102 0 235 102 299 229 19 38 58 134 87 214 77 213 130 318
198 392 115 125 123 137 112 158 -8 16 -21 20 -58 20 -150 0 -362 -221 -457
-475 -85 -225 -112 -275 -150 -275 -58 0 -130 164 -207 474 -33 132 -58 209
-71 223 -12 14 -45 28 -88 37 -76 18 -94 19 -127 6z"/>
<path d="M3600 2902 c0 -88 -55 -227 -109 -276 -16 -14 -21 -31 -21 -66 0 -90
23 -163 93 -300 75 -145 256 -596 338 -841 27 -82 83 -274 125 -427 41 -152
77 -284 80 -293 8 -26 121 91 149 155 36 82 48 133 35 156 -8 16 -7 22 8 31
19 12 19 13 1 73 -31 101 -58 246 -69 373 -13 147 -4 273 45 644 42 313 57
526 49 666 -6 93 -9 102 -30 112 -20 9 -25 6 -43 -25 -24 -39 -87 -73 -139
-74 -44 0 -95 22 -143 63 -53 46 -120 65 -256 73 l-113 7 0 -51z"/>
<path d="M4956 2316 c-13 -82 -63 -277 -101 -386 -62 -183 -66 -200 -47 -193
58 21 130 95 162 167 15 33 17 57 13 150 -5 96 -3 119 16 170 20 58 20 60 2
80 -10 12 -23 29 -28 40 -9 16 -11 11 -17 -28z"/>
<path d="M7450 1585 l0 -385 258 0 c304 0 341 7 408 74 98 97 77 238 -43 296
-29 14 -52 27 -52 30 0 3 19 17 44 32 55 33 77 67 83 127 6 64 -12 113 -53
150 -61 53 -110 61 -392 61 l-253 0 0 -385z m420 182 c30 -15 38 -58 15 -81
-13 -12 -36 -16 -101 -16 l-84 0 0 55 0 55 73 0 c39 0 83 -6 97 -13z m13 -268
c28 -15 37 -28 37 -56 0 -39 -36 -53 -132 -53 l-88 0 0 60 0 60 81 0 c44 0 90
-5 102 -11z"/>
<path d="M9313 1790 c-25 -11 -54 -35 -70 -59 -15 -22 -31 -40 -35 -41 -5 0
-8 25 -8 55 l0 55 -120 0 -120 0 0 -300 0 -300 119 0 118 0 5 113 c8 166 39
216 147 233 l41 7 0 128 c0 146 1 145 -77 109z"/>
<path d="M9634 1799 c-58 -17 -128 -72 -161 -128 -106 -178 -34 -404 150 -468
81 -28 207 -24 277 9 52 25 120 80 120 97 0 4 -27 29 -60 55 l-61 47 -28 -20
c-68 -49 -139 -50 -185 -4 -51 51 -44 53 170 53 l197 0 -7 66 c-20 198 -132
306 -315 303 -36 0 -80 -5 -97 -10z m171 -200 c25 -46 21 -49 -70 -49 -47 0
-85 3 -85 6 0 3 7 21 16 39 29 61 109 63 139 4z"/>
<path d="M10270 1800 c-25 -4 -65 -13 -88 -20 -49 -13 -48 -6 -16 -119 13 -47
18 -52 37 -47 151 43 257 21 257 -55 0 -26 -1 -27 -37 -18 -61 14 -180 11
-221 -6 -78 -33 -112 -86 -112 -173 0 -67 23 -112 78 -149 67 -44 191 -38 252
13 35 30 40 30 40 -1 l0 -25 126 0 126 0 -4 218 c-3 198 -5 221 -25 257 -38
72 -90 106 -188 124 -65 12 -157 13 -225 1z m174 -350 c22 -8 25 -14 20 -42
-13 -67 -48 -97 -100 -84 -50 13 -54 95 -5 121 31 17 51 18 85 5z"/>
<path d="M8232 1563 c3 -223 4 -241 25 -280 27 -50 63 -77 123 -93 72 -19 167
7 214 59 27 30 36 26 36 -14 l0 -35 120 0 120 0 0 300 0 300 -119 0 -120 0 -3
-179 c-3 -159 -5 -181 -22 -200 -25 -27 -79 -28 -106 -1 -19 19 -20 33 -20
200 l0 180 -126 0 -126 0 4 -237z"/>
<path d="M10780 1593 c1 -221 8 -279 43 -330 63 -93 213 -107 305 -27 22 19
43 34 46 34 3 0 6 -16 6 -35 l0 -35 125 0 125 0 0 300 0 300 -125 0 -125 0 0
-174 c0 -160 -2 -175 -21 -200 -14 -18 -30 -26 -52 -26 -69 0 -77 23 -77 229
l0 171 -125 0 -125 0 0 -207z"/>
<path d="M2744 1486 c-7 -18 18 -76 57 -134 25 -37 36 -70 51 -152 11 -58 23
-127 28 -155 19 -103 42 -156 92 -211 27 -29 72 -97 100 -151 27 -54 59 -115
70 -136 l21 -38 -23 -24 -22 -23 27 -46 c36 -62 88 -106 125 -106 17 0 57 7
89 16 l58 17 -153 380 c-85 209 -162 394 -172 411 -10 16 -49 51 -87 77 -83
57 -119 96 -187 207 -51 82 -64 94 -74 68z"/>
<path d="M9870 755 l0 -165 35 0 35 0 0 165 0 165 -35 0 -35 0 0 -165z"/>
<path d="M7738 899 c-10 -5 -20 -25 -24 -44 -3 -19 -10 -35 -15 -35 -5 0 -9
-11 -9 -25 0 -14 5 -25 10 -25 6 0 10 -35 10 -85 l0 -85 30 0 30 0 0 85 0 85
30 0 c25 0 30 4 30 25 0 21 -5 25 -31 25 -24 0 -30 4 -27 18 2 10 14 18 31 20
21 3 27 9 27 28 0 21 -4 24 -37 24 -21 0 -46 -5 -55 -11z"/>
<path d="M8060 885 c0 -21 5 -25 30 -25 25 0 30 4 30 25 0 21 -5 25 -30 25
-25 0 -30 -4 -30 -25z"/>
<path d="M10000 755 l0 -155 29 0 c16 0 31 5 33 12 3 8 11 7 28 -5 36 -25 75
-21 111 11 60 53 48 162 -22 197 -31 16 -83 13 -94 -6 -15 -23 -25 -4 -25 46
0 54 0 55 -30 55 l-30 0 0 -155z m160 5 c24 -24 26 -67 4 -98 -32 -46 -104
-12 -104 48 0 34 31 70 60 70 11 0 29 -9 40 -20z"/>
<path d="M8710 850 c0 -16 -4 -30 -10 -30 -5 0 -10 -11 -10 -25 0 -14 5 -25
10 -25 6 0 10 -26 10 -59 0 -33 4 -71 10 -85 17 -46 110 -48 110 -3 0 18 -5
23 -27 22 -27 0 -28 2 -31 63 l-3 62 31 0 c25 0 30 4 30 25 0 21 -5 25 -30 25
-27 0 -30 3 -30 30 0 27 -3 30 -30 30 -27 0 -30 -3 -30 -30z"/>
<path d="M12380 850 c0 -20 -5 -30 -15 -30 -9 0 -15 -9 -15 -25 0 -16 6 -25
15 -25 12 0 15 -15 15 -74 0 -82 13 -106 55 -106 38 0 55 11 55 35 0 19 -4 22
-21 18 -29 -8 -39 12 -39 75 0 51 0 52 30 52 25 0 30 4 30 25 0 21 -5 25 -30
25 -27 0 -30 3 -30 30 0 25 -4 30 -25 30 -21 0 -25 -5 -25 -30z"/>
<path d="M7497 819 c-44 -7 -49 -11 -42 -32 5 -11 20 -15 56 -13 35 1 53 -4
59 -14 19 -30 11 -38 -30 -33 -77 11 -122 -29 -106 -92 8 -30 50 -49 86 -40
14 4 47 6 74 6 l49 -2 -6 86 c-4 71 -9 91 -27 110 -25 26 -58 33 -113 24z m72
-128 c20 -13 4 -50 -26 -57 -46 -12 -77 21 -48 50 18 17 52 21 74 7z"/>
<path d="M7963 809 c-28 -18 -33 -19 -33 -5 0 11 -9 16 -30 16 l-30 0 0 -110
0 -110 30 0 c30 0 30 0 30 56 0 64 12 91 46 104 18 7 24 17 24 40 0 16 -1 30
-2 30 -2 0 -18 -10 -35 -21z"/>
<path d="M8263 823 c-12 -2 -36 -20 -53 -39 -72 -83 -6 -206 103 -191 50 7 76
29 58 51 -10 11 -18 13 -31 6 -60 -32 -124 23 -100 85 13 35 52 52 86 36 20
-9 30 -9 40 0 22 18 17 29 -21 45 -35 14 -42 15 -82 7z"/>
<path d="M8497 820 c-44 -8 -49 -12 -42 -33 5 -11 20 -15 56 -13 35 1 53 -4
59 -14 19 -30 11 -38 -30 -33 -76 10 -122 -29 -106 -91 8 -33 59 -53 97 -39
16 6 47 9 69 6 l40 -6 0 64 c0 69 -14 134 -32 145 -21 13 -74 20 -111 14z m71
-129 c22 -13 10 -45 -21 -55 -47 -17 -83 17 -52 48 18 17 52 21 73 7z"/>
<path d="M8977 810 c-30 -24 -37 -25 -37 -5 0 9 -9 15 -25 15 l-25 0 0 -110 0
-110 25 0 c23 0 25 4 25 44 0 64 17 102 51 116 23 10 29 19 29 41 0 34 -8 36
-43 9z"/>
<path d="M9127 819 c-44 -7 -49 -11 -42 -32 5 -11 20 -15 56 -13 35 1 53 -4
59 -14 19 -30 11 -38 -30 -33 -77 11 -122 -29 -106 -92 8 -30 50 -49 86 -40
14 4 47 6 74 6 l49 -2 -6 86 c-4 71 -9 91 -27 110 -25 26 -58 33 -113 24z m72
-128 c20 -13 4 -50 -26 -57 -46 -12 -77 21 -48 50 18 17 52 21 74 7z"/>
<path d="M9655 816 c-43 -18 -65 -57 -65 -110 0 -36 6 -52 29 -78 26 -30 35
-33 85 -33 39 0 60 5 73 17 27 28 4 43 -41 28 -40 -13 -68 -3 -86 30 -10 19
-7 20 75 20 80 0 85 1 85 21 0 38 -31 87 -65 103 -40 19 -51 19 -90 2z m79
-52 c31 -30 20 -44 -34 -44 -41 0 -50 3 -50 18 0 40 54 57 84 26z"/>
<path d="M10667 810 c-30 -24 -37 -25 -37 -5 0 10 -10 15 -30 15 l-30 0 0
-110 0 -110 30 0 c29 0 30 1 30 49 0 68 14 100 50 112 24 9 30 17 30 40 0 34
-8 36 -43 9z"/>
<path d="M10812 813 c-82 -40 -82 -167 0 -209 57 -30 160 2 129 40 -10 12 -16
12 -41 -1 -25 -12 -34 -12 -57 -1 -15 7 -29 21 -31 31 -3 15 6 17 77 17 80 0
81 0 81 25 0 42 -29 85 -65 101 -43 18 -52 17 -93 -3z m82 -49 c31 -30 20 -44
-34 -44 -37 0 -50 4 -50 14 0 20 28 46 50 46 10 0 26 -7 34 -16z"/>
<path d="M11087 819 c-44 -7 -49 -11 -42 -31 4 -10 21 -14 56 -14 34 1 53 -4
59 -14 19 -29 11 -39 -24 -33 -69 11 -116 -17 -116 -68 0 -45 34 -72 78 -64
21 3 56 6 80 6 l42 -1 0 88 c0 79 -2 91 -22 109 -27 24 -60 31 -111 22z m72
-128 c20 -13 4 -50 -26 -57 -46 -12 -77 21 -48 50 18 17 52 21 74 7z"/>
<path d="M11750 813 c-44 -23 -75 -81 -66 -127 14 -74 110 -118 175 -80 28 17
29 19 14 36 -11 13 -20 15 -34 8 -30 -17 -67 -11 -83 12 -22 31 -20 74 4 98
23 23 42 25 71 9 16 -8 25 -7 40 7 18 16 18 18 1 30 -33 23 -84 26 -122 7z"/>
<path d="M12023 823 c-33 -6 -79 -57 -87 -93 -8 -43 16 -95 56 -120 77 -49
188 9 188 99 0 46 -29 88 -76 107 -34 14 -41 15 -81 7z m60 -54 c30 -16 37
-28 37 -66 0 -60 -72 -84 -109 -37 -27 35 -26 59 4 89 27 28 37 30 68 14z"/>
<path d="M6160 813 c0 -5 15 -55 33 -113 30 -96 35 -105 60 -108 24 -3 27 1
44 59 10 34 24 64 30 66 7 3 20 -22 31 -59 17 -54 23 -63 45 -66 27 -3 32 8
92 206 6 19 3 22 -24 22 -19 0 -31 -5 -31 -13 0 -23 -30 -117 -38 -117 -4 0
-16 29 -26 65 -17 59 -21 65 -45 65 -24 0 -29 -6 -47 -62 -11 -35 -24 -62 -30
-61 -5 1 -15 29 -23 62 -14 57 -16 61 -43 61 -15 0 -28 -3 -28 -7z"/>
<path d="M6546 795 c3 -14 18 -64 33 -112 24 -80 30 -88 53 -91 25 -3 28 1 46
59 11 35 24 65 30 67 5 1 20 -27 32 -63 20 -60 24 -66 47 -63 23 3 29 13 59
113 19 61 34 111 34 113 0 1 -13 2 -30 2 -18 0 -30 -5 -30 -13 0 -23 -30 -117
-38 -117 -4 0 -16 29 -26 65 -17 59 -21 65 -46 65 -24 0 -29 -6 -45 -60 -10
-34 -22 -63 -26 -66 -8 -4 -39 86 -39 113 0 8 -12 13 -30 13 -27 0 -30 -2 -24
-25z"/>
<path d="M6925 797 c4 -13 19 -63 34 -113 25 -79 31 -89 53 -92 24 -3 28 3 48
62 12 36 25 66 30 66 5 0 18 -30 30 -66 20 -59 24 -65 47 -62 23 3 29 13 59
113 19 61 34 111 34 113 0 1 -13 2 -30 2 -18 0 -30 -5 -30 -13 0 -23 -30 -117
-38 -117 -4 0 -16 29 -26 65 -17 60 -21 65 -46 65 -25 0 -29 -5 -46 -65 -10
-36 -22 -65 -26 -65 -6 0 -38 98 -38 119 0 6 -14 11 -30 11 -27 0 -30 -3 -25
-23z"/>
<path d="M8060 710 l0 -110 30 0 30 0 0 110 0 110 -30 0 -30 0 0 -110z"/>
<path d="M9320 813 c0 -3 19 -55 42 -115 59 -153 77 -153 136 0 23 60 42 112
42 116 0 4 -12 6 -26 4 -23 -3 -30 -13 -51 -70 -14 -38 -29 -68 -34 -68 -4 0
-18 32 -30 70 -21 65 -25 70 -51 70 -15 0 -28 -3 -28 -7z"/>
<path d="M10300 730 c0 -83 2 -93 25 -115 28 -29 61 -32 95 -8 17 12 25 13 28
5 2 -7 17 -12 33 -12 l29 0 0 110 0 110 -30 0 -30 0 0 -69 c0 -52 -4 -74 -19
-92 -16 -21 -22 -22 -45 -11 -25 11 -26 15 -26 92 l0 80 -30 0 -30 0 0 -90z"/>
<path d="M11290 730 c0 -83 2 -93 25 -115 28 -29 61 -32 95 -8 17 12 25 13 28
5 2 -7 17 -12 33 -12 l29 0 0 110 0 110 -30 0 -30 0 0 -74 c0 -94 -21 -122
-71 -96 -16 9 -19 22 -19 90 l0 80 -30 0 -30 0 0 -90z"/>
<path d="M12540 800 c0 -18 7 -20 60 -20 33 0 60 -3 60 -6 0 -3 -27 -36 -60
-73 -85 -96 -83 -101 40 -101 93 0 100 1 100 20 0 18 -7 20 -60 20 -33 0 -60
3 -60 6 0 4 27 37 60 74 84 95 83 100 -40 100 -93 0 -100 -1 -100 -20z"/>
<path d="M7300 630 l0 -40 40 0 40 0 0 40 0 40 -40 0 -40 0 0 -40z"/>
<path d="M11560 630 l0 -40 40 0 40 0 0 40 0 40 -40 0 -40 0 0 -40z"/>
<path d="M12230 630 l0 -40 40 0 40 0 0 40 0 40 -40 0 -40 0 0 -40z"/>
</g>
</svg>
